<mxfile host="app.diagrams.net" modified="2023-08-13T17:06:25.465Z" agent="Mozilla/5.0 (Windows NT 10.0; WOW64) AppleWebKit/537.36 (KHTML, like Gecko) Chrome/86.0.4240.198 Safari/537.36" etag="Fi0iI_9Ucq5R1qOeiz9r" version="21.6.8" type="device">
  <diagram id="C5RBs43oDa-KdzZeNtuy" name="Page-1">
    <mxGraphModel dx="2392" dy="1316" grid="1" gridSize="10" guides="1" tooltips="1" connect="1" arrows="1" fold="1" page="1" pageScale="1" pageWidth="827" pageHeight="1169" math="0" shadow="0">
      <root>
        <mxCell id="WIyWlLk6GJQsqaUBKTNV-0" />
        <mxCell id="WIyWlLk6GJQsqaUBKTNV-1" parent="WIyWlLk6GJQsqaUBKTNV-0" />
        <mxCell id="Nz5ayUbZNmt3RJVRpbZz-1" value="&lt;font style=&quot;font-size: 20px;&quot;&gt;RenderPass&lt;/font&gt;" style="rounded=0;whiteSpace=wrap;html=1;fillColor=#fff2cc;strokeColor=#d6b656;align=left;verticalAlign=bottom;fontColor=#000000;" vertex="1" parent="WIyWlLk6GJQsqaUBKTNV-1">
          <mxGeometry x="1960" y="880" width="240" height="800" as="geometry" />
        </mxCell>
        <mxCell id="Nz5ayUbZNmt3RJVRpbZz-0" value="&lt;font style=&quot;font-size: 20px;&quot;&gt;RenderFeature&lt;/font&gt;" style="rounded=0;whiteSpace=wrap;html=1;fillColor=#dae8fc;strokeColor=#6c8ebf;align=right;verticalAlign=bottom;" vertex="1" parent="WIyWlLk6GJQsqaUBKTNV-1">
          <mxGeometry x="1240" y="880" width="240" height="800" as="geometry" />
        </mxCell>
        <mxCell id="_3hMu_wDY1Y_kPW_EiCi-18" style="edgeStyle=orthogonalEdgeStyle;rounded=0;orthogonalLoop=1;jettySize=auto;html=1;exitX=1;exitY=0.75;exitDx=0;exitDy=0;entryX=0;entryY=0.5;entryDx=0;entryDy=0;" parent="WIyWlLk6GJQsqaUBKTNV-1" source="_3hMu_wDY1Y_kPW_EiCi-0" target="_3hMu_wDY1Y_kPW_EiCi-13" edge="1">
          <mxGeometry relative="1" as="geometry" />
        </mxCell>
        <mxCell id="_3hMu_wDY1Y_kPW_EiCi-0" value="" style="shape=image;verticalLabelPosition=bottom;labelBackgroundColor=default;verticalAlign=top;aspect=fixed;imageAspect=0;image=https://docs.unity3d.com/cn/2019.3/uploads/Main/monobehaviour_flowchart.svg;" parent="WIyWlLk6GJQsqaUBKTNV-1" vertex="1">
          <mxGeometry x="320" y="880" width="576" height="1200" as="geometry" />
        </mxCell>
        <mxCell id="_3hMu_wDY1Y_kPW_EiCi-17" style="edgeStyle=orthogonalEdgeStyle;rounded=0;orthogonalLoop=1;jettySize=auto;html=1;entryX=0;entryY=0.5;entryDx=0;entryDy=0;" parent="WIyWlLk6GJQsqaUBKTNV-1" source="_3hMu_wDY1Y_kPW_EiCi-1" target="_3hMu_wDY1Y_kPW_EiCi-6" edge="1">
          <mxGeometry relative="1" as="geometry">
            <Array as="points">
              <mxPoint x="1520" y="940" />
            </Array>
          </mxGeometry>
        </mxCell>
        <mxCell id="_3hMu_wDY1Y_kPW_EiCi-32" style="edgeStyle=orthogonalEdgeStyle;rounded=0;orthogonalLoop=1;jettySize=auto;html=1;entryX=0;entryY=0.5;entryDx=0;entryDy=0;" parent="WIyWlLk6GJQsqaUBKTNV-1" source="_3hMu_wDY1Y_kPW_EiCi-1" target="_3hMu_wDY1Y_kPW_EiCi-31" edge="1">
          <mxGeometry relative="1" as="geometry" />
        </mxCell>
        <mxCell id="_3hMu_wDY1Y_kPW_EiCi-1" value="&lt;font color=&quot;#ff0000&quot;&gt;Create()&lt;/font&gt;" style="rounded=0;whiteSpace=wrap;html=1;fontStyle=1" parent="WIyWlLk6GJQsqaUBKTNV-1" vertex="1">
          <mxGeometry x="1400" y="1000" width="160" height="40" as="geometry" />
        </mxCell>
        <mxCell id="_3hMu_wDY1Y_kPW_EiCi-2" value="" style="endArrow=classic;html=1;rounded=0;" parent="WIyWlLk6GJQsqaUBKTNV-1" target="_3hMu_wDY1Y_kPW_EiCi-1" edge="1">
          <mxGeometry width="50" height="50" relative="1" as="geometry">
            <mxPoint x="920" y="1020" as="sourcePoint" />
            <mxPoint x="950" y="1030" as="targetPoint" />
          </mxGeometry>
        </mxCell>
        <mxCell id="_3hMu_wDY1Y_kPW_EiCi-15" style="edgeStyle=orthogonalEdgeStyle;rounded=0;orthogonalLoop=1;jettySize=auto;html=1;entryX=-0.046;entryY=0.517;entryDx=0;entryDy=0;entryPerimeter=0;" parent="WIyWlLk6GJQsqaUBKTNV-1" source="_3hMu_wDY1Y_kPW_EiCi-6" target="_3hMu_wDY1Y_kPW_EiCi-16" edge="1">
          <mxGeometry relative="1" as="geometry">
            <mxPoint x="1740" y="870" as="targetPoint" />
          </mxGeometry>
        </mxCell>
        <mxCell id="_3hMu_wDY1Y_kPW_EiCi-6" value="Shader List" style="text;strokeColor=#FF00FF;fillColor=none;html=1;fontSize=16;fontStyle=1;verticalAlign=middle;align=center;fontColor=#FF00FF;" parent="WIyWlLk6GJQsqaUBKTNV-1" vertex="1">
          <mxGeometry x="1580" y="920" width="100" height="40" as="geometry" />
        </mxCell>
        <mxCell id="_3hMu_wDY1Y_kPW_EiCi-11" value="&lt;font color=&quot;#ff0000&quot;&gt;Release&lt;/font&gt;" style="text;html=1;strokeColor=none;fillColor=none;align=center;verticalAlign=middle;whiteSpace=wrap;rounded=0;fontStyle=1" parent="WIyWlLk6GJQsqaUBKTNV-1" vertex="1">
          <mxGeometry x="1550" y="1580" width="90" height="30" as="geometry" />
        </mxCell>
        <mxCell id="_3hMu_wDY1Y_kPW_EiCi-21" style="edgeStyle=orthogonalEdgeStyle;rounded=0;orthogonalLoop=1;jettySize=auto;html=1;" parent="WIyWlLk6GJQsqaUBKTNV-1" source="_3hMu_wDY1Y_kPW_EiCi-13" target="_3hMu_wDY1Y_kPW_EiCi-20" edge="1">
          <mxGeometry relative="1" as="geometry" />
        </mxCell>
        <mxCell id="_3hMu_wDY1Y_kPW_EiCi-13" value="Render" style="rounded=0;whiteSpace=wrap;html=1;fontStyle=1" parent="WIyWlLk6GJQsqaUBKTNV-1" vertex="1">
          <mxGeometry x="1640" y="1760" width="120" height="40" as="geometry" />
        </mxCell>
        <mxCell id="_3hMu_wDY1Y_kPW_EiCi-22" style="edgeStyle=orthogonalEdgeStyle;rounded=0;orthogonalLoop=1;jettySize=auto;html=1;" parent="WIyWlLk6GJQsqaUBKTNV-1" source="_3hMu_wDY1Y_kPW_EiCi-16" target="_3hMu_wDY1Y_kPW_EiCi-31" edge="1">
          <mxGeometry relative="1" as="geometry">
            <mxPoint x="1761" y="1780" as="targetPoint" />
            <Array as="points">
              <mxPoint x="1900" y="940" />
            </Array>
          </mxGeometry>
        </mxCell>
        <mxCell id="_3hMu_wDY1Y_kPW_EiCi-16" value="&lt;font style=&quot;font-size: 12px;&quot;&gt;Material List&lt;/font&gt;" style="text;strokeColor=#FF00FF;fillColor=none;html=1;fontSize=16;fontStyle=1;verticalAlign=middle;align=center;fontColor=#FF00FF;" parent="WIyWlLk6GJQsqaUBKTNV-1" vertex="1">
          <mxGeometry x="1740" y="930" width="80" height="20" as="geometry" />
        </mxCell>
        <mxCell id="_3hMu_wDY1Y_kPW_EiCi-44" style="edgeStyle=orthogonalEdgeStyle;rounded=0;orthogonalLoop=1;jettySize=auto;html=1;entryX=0;entryY=0.5;entryDx=0;entryDy=0;" parent="WIyWlLk6GJQsqaUBKTNV-1" source="_3hMu_wDY1Y_kPW_EiCi-20" target="_3hMu_wDY1Y_kPW_EiCi-43" edge="1">
          <mxGeometry relative="1" as="geometry" />
        </mxCell>
        <mxCell id="_3hMu_wDY1Y_kPW_EiCi-20" value="RenderSingleCamera" style="rounded=0;whiteSpace=wrap;html=1;fontStyle=1" parent="WIyWlLk6GJQsqaUBKTNV-1" vertex="1">
          <mxGeometry x="2070" y="1760" width="160" height="40" as="geometry" />
        </mxCell>
        <mxCell id="_3hMu_wDY1Y_kPW_EiCi-23" value="Render Before" style="text;html=1;strokeColor=#005700;fillColor=#008a00;align=center;verticalAlign=middle;whiteSpace=wrap;rounded=0;fontColor=#ffffff;fontStyle=1" parent="WIyWlLk6GJQsqaUBKTNV-1" vertex="1">
          <mxGeometry x="1960" y="1720" width="80" height="40" as="geometry" />
        </mxCell>
        <mxCell id="_3hMu_wDY1Y_kPW_EiCi-36" style="edgeStyle=orthogonalEdgeStyle;rounded=0;orthogonalLoop=1;jettySize=auto;html=1;entryX=0;entryY=0.5;entryDx=0;entryDy=0;" parent="WIyWlLk6GJQsqaUBKTNV-1" source="_3hMu_wDY1Y_kPW_EiCi-28" target="_3hMu_wDY1Y_kPW_EiCi-39" edge="1">
          <mxGeometry relative="1" as="geometry">
            <mxPoint x="1900" y="1130" as="targetPoint" />
          </mxGeometry>
        </mxCell>
        <mxCell id="_3hMu_wDY1Y_kPW_EiCi-28" value="&lt;font color=&quot;#009900&quot;&gt;OnCameraSetup&lt;/font&gt;" style="rounded=0;whiteSpace=wrap;html=1;fontStyle=1" parent="WIyWlLk6GJQsqaUBKTNV-1" vertex="1">
          <mxGeometry x="1545" y="1169" width="110" height="40" as="geometry" />
        </mxCell>
        <mxCell id="_3hMu_wDY1Y_kPW_EiCi-35" style="edgeStyle=orthogonalEdgeStyle;rounded=0;orthogonalLoop=1;jettySize=auto;html=1;" parent="WIyWlLk6GJQsqaUBKTNV-1" source="_3hMu_wDY1Y_kPW_EiCi-29" edge="1">
          <mxGeometry relative="1" as="geometry">
            <mxPoint x="1700" y="1490" as="targetPoint" />
            <Array as="points">
              <mxPoint x="1590" y="1490" />
              <mxPoint x="1590" y="1490" />
            </Array>
          </mxGeometry>
        </mxCell>
        <mxCell id="_3hMu_wDY1Y_kPW_EiCi-29" value="&lt;font&gt;SetupRenderPasses&lt;/font&gt;" style="rounded=0;whiteSpace=wrap;html=1;fontStyle=1;fontColor=#FF00FF;" parent="WIyWlLk6GJQsqaUBKTNV-1" vertex="1">
          <mxGeometry x="1360" y="1470" width="160" height="40" as="geometry" />
        </mxCell>
        <mxCell id="_3hMu_wDY1Y_kPW_EiCi-34" style="edgeStyle=orthogonalEdgeStyle;rounded=0;orthogonalLoop=1;jettySize=auto;html=1;" parent="WIyWlLk6GJQsqaUBKTNV-1" source="_3hMu_wDY1Y_kPW_EiCi-31" edge="1" target="_3hMu_wDY1Y_kPW_EiCi-13">
          <mxGeometry relative="1" as="geometry">
            <mxPoint x="1720" y="1640" as="targetPoint" />
            <Array as="points">
              <mxPoint x="1900" y="1270" />
              <mxPoint x="1700" y="1270" />
            </Array>
          </mxGeometry>
        </mxCell>
        <mxCell id="_3hMu_wDY1Y_kPW_EiCi-31" value="RenderPass" style="rounded=0;whiteSpace=wrap;html=1;fontColor=#FF00FF;" parent="WIyWlLk6GJQsqaUBKTNV-1" vertex="1">
          <mxGeometry x="1840" y="990" width="160" height="60" as="geometry" />
        </mxCell>
        <mxCell id="_3hMu_wDY1Y_kPW_EiCi-33" style="edgeStyle=orthogonalEdgeStyle;rounded=0;orthogonalLoop=1;jettySize=auto;html=1;exitX=0.75;exitY=1;exitDx=0;exitDy=0;entryX=1;entryY=0.5;entryDx=0;entryDy=0;" parent="WIyWlLk6GJQsqaUBKTNV-1" source="_3hMu_wDY1Y_kPW_EiCi-16" target="_3hMu_wDY1Y_kPW_EiCi-16" edge="1">
          <mxGeometry relative="1" as="geometry" />
        </mxCell>
        <mxCell id="_3hMu_wDY1Y_kPW_EiCi-41" style="edgeStyle=orthogonalEdgeStyle;rounded=0;orthogonalLoop=1;jettySize=auto;html=1;" parent="WIyWlLk6GJQsqaUBKTNV-1" source="_3hMu_wDY1Y_kPW_EiCi-39" edge="1">
          <mxGeometry relative="1" as="geometry">
            <mxPoint x="1900" y="1189" as="targetPoint" />
          </mxGeometry>
        </mxCell>
        <mxCell id="_3hMu_wDY1Y_kPW_EiCi-39" value="&lt;font color=&quot;#009900&quot;&gt;ConfigureTarget&lt;/font&gt;" style="rounded=0;whiteSpace=wrap;html=1;fontStyle=1" parent="WIyWlLk6GJQsqaUBKTNV-1" vertex="1">
          <mxGeometry x="1700" y="1169" width="110" height="40" as="geometry" />
        </mxCell>
        <mxCell id="_3hMu_wDY1Y_kPW_EiCi-42" value="CameraRenderTarget" style="text;html=1;strokeColor=none;fillColor=none;align=center;verticalAlign=middle;whiteSpace=wrap;rounded=0;fontColor=#FF1F0F;" parent="WIyWlLk6GJQsqaUBKTNV-1" vertex="1">
          <mxGeometry x="1530" y="1450" width="140" height="30" as="geometry" />
        </mxCell>
        <mxCell id="_3hMu_wDY1Y_kPW_EiCi-46" style="edgeStyle=orthogonalEdgeStyle;rounded=0;orthogonalLoop=1;jettySize=auto;html=1;entryX=0;entryY=0.5;entryDx=0;entryDy=0;" parent="WIyWlLk6GJQsqaUBKTNV-1" source="_3hMu_wDY1Y_kPW_EiCi-43" target="_3hMu_wDY1Y_kPW_EiCi-45" edge="1">
          <mxGeometry relative="1" as="geometry" />
        </mxCell>
        <mxCell id="_3hMu_wDY1Y_kPW_EiCi-43" value="AddRenderPasses" style="rounded=0;whiteSpace=wrap;html=1;fontStyle=1" parent="WIyWlLk6GJQsqaUBKTNV-1" vertex="1">
          <mxGeometry x="2290" y="1760" width="160" height="40" as="geometry" />
        </mxCell>
        <mxCell id="_3hMu_wDY1Y_kPW_EiCi-50" style="edgeStyle=orthogonalEdgeStyle;rounded=0;orthogonalLoop=1;jettySize=auto;html=1;entryX=1;entryY=0.5;entryDx=0;entryDy=0;" parent="WIyWlLk6GJQsqaUBKTNV-1" source="_3hMu_wDY1Y_kPW_EiCi-45" target="szwgAvrA6IzAa-9dN4wV-0" edge="1">
          <mxGeometry relative="1" as="geometry">
            <Array as="points">
              <mxPoint x="2620" y="1920" />
            </Array>
            <mxPoint x="1730" y="1829" as="targetPoint" />
          </mxGeometry>
        </mxCell>
        <mxCell id="_3hMu_wDY1Y_kPW_EiCi-45" value="EnqueuePass" style="rounded=0;whiteSpace=wrap;html=1;fontStyle=1" parent="WIyWlLk6GJQsqaUBKTNV-1" vertex="1">
          <mxGeometry x="2560" y="1760" width="120" height="40" as="geometry" />
        </mxCell>
        <mxCell id="_3hMu_wDY1Y_kPW_EiCi-49" value="CommandBufferPool.Release" style="rounded=0;whiteSpace=wrap;html=1;fontStyle=1" parent="WIyWlLk6GJQsqaUBKTNV-1" vertex="1">
          <mxGeometry x="1480" y="2070" width="240" height="40" as="geometry" />
        </mxCell>
        <mxCell id="szwgAvrA6IzAa-9dN4wV-0" value="Execute" style="rounded=0;whiteSpace=wrap;html=1;" parent="WIyWlLk6GJQsqaUBKTNV-1" vertex="1">
          <mxGeometry x="1510" y="1890" width="120" height="60" as="geometry" />
        </mxCell>
        <mxCell id="1d3n0oagmLt5IsHWG1j7-0" value="&lt;font color=&quot;#ff0000&quot;&gt;&lt;font style=&quot;vertical-align: inherit;&quot;&gt;&lt;font style=&quot;vertical-align: inherit;&quot;&gt;Create&lt;/font&gt;&lt;/font&gt;&lt;/font&gt;" style="text;html=1;strokeColor=none;fillColor=none;align=center;verticalAlign=middle;whiteSpace=wrap;rounded=0;fontStyle=1" vertex="1" parent="WIyWlLk6GJQsqaUBKTNV-1">
          <mxGeometry x="1680" y="980" width="90" height="30" as="geometry" />
        </mxCell>
        <mxCell id="1d3n0oagmLt5IsHWG1j7-1" value="RenderPass" style="rounded=0;whiteSpace=wrap;html=1;fontColor=#FF00FF;" vertex="1" parent="WIyWlLk6GJQsqaUBKTNV-1">
          <mxGeometry x="1400" y="1080" width="160" height="60" as="geometry" />
        </mxCell>
        <mxCell id="1d3n0oagmLt5IsHWG1j7-2" value="" style="endArrow=classic;html=1;rounded=0;entryX=1;entryY=0.5;entryDx=0;entryDy=0;exitX=0.125;exitY=1;exitDx=0;exitDy=0;exitPerimeter=0;" edge="1" parent="WIyWlLk6GJQsqaUBKTNV-1" source="_3hMu_wDY1Y_kPW_EiCi-31" target="1d3n0oagmLt5IsHWG1j7-1">
          <mxGeometry width="50" height="50" relative="1" as="geometry">
            <mxPoint x="1870" y="1110" as="sourcePoint" />
            <mxPoint x="1840" y="1090" as="targetPoint" />
            <Array as="points">
              <mxPoint x="1860" y="1110" />
            </Array>
          </mxGeometry>
        </mxCell>
        <mxCell id="1d3n0oagmLt5IsHWG1j7-3" value="&lt;font color=&quot;#ff0000&quot;&gt;&lt;font style=&quot;vertical-align: inherit;&quot;&gt;&lt;font style=&quot;vertical-align: inherit;&quot;&gt;PassData&lt;/font&gt;&lt;/font&gt;&lt;/font&gt;" style="text;html=1;strokeColor=none;fillColor=none;align=center;verticalAlign=middle;whiteSpace=wrap;rounded=0;fontStyle=1" vertex="1" parent="WIyWlLk6GJQsqaUBKTNV-1">
          <mxGeometry x="1640" y="1070" width="90" height="30" as="geometry" />
        </mxCell>
        <mxCell id="1d3n0oagmLt5IsHWG1j7-5" style="edgeStyle=orthogonalEdgeStyle;rounded=0;orthogonalLoop=1;jettySize=auto;html=1;" edge="1" parent="WIyWlLk6GJQsqaUBKTNV-1" target="_3hMu_wDY1Y_kPW_EiCi-29">
          <mxGeometry relative="1" as="geometry">
            <mxPoint x="1910" y="1360" as="sourcePoint" />
            <mxPoint x="1520" y="1360" as="targetPoint" />
          </mxGeometry>
        </mxCell>
        <mxCell id="1d3n0oagmLt5IsHWG1j7-4" value="&lt;font color=&quot;#009900&quot;&gt;&lt;font style=&quot;vertical-align: inherit;&quot;&gt;&lt;font style=&quot;vertical-align: inherit;&quot;&gt;Execute&lt;/font&gt;&lt;/font&gt;&lt;/font&gt;" style="rounded=0;whiteSpace=wrap;html=1;fontStyle=1" vertex="1" parent="WIyWlLk6GJQsqaUBKTNV-1">
          <mxGeometry x="1910" y="1330" width="110" height="320" as="geometry" />
        </mxCell>
        <mxCell id="1d3n0oagmLt5IsHWG1j7-6" value="&lt;font&gt;&lt;font style=&quot;vertical-align: inherit;&quot;&gt;&lt;font style=&quot;vertical-align: inherit;&quot;&gt;Dispose&lt;/font&gt;&lt;/font&gt;&lt;/font&gt;" style="rounded=0;whiteSpace=wrap;html=1;fontStyle=1;fontColor=#000000;" vertex="1" parent="WIyWlLk6GJQsqaUBKTNV-1">
          <mxGeometry x="1410" y="1600" width="110" height="40" as="geometry" />
        </mxCell>
        <mxCell id="1d3n0oagmLt5IsHWG1j7-8" value="" style="endArrow=classic;html=1;rounded=0;entryX=1;entryY=0.5;entryDx=0;entryDy=0;" edge="1" parent="WIyWlLk6GJQsqaUBKTNV-1" target="1d3n0oagmLt5IsHWG1j7-6">
          <mxGeometry width="50" height="50" relative="1" as="geometry">
            <mxPoint x="1910" y="1620" as="sourcePoint" />
            <mxPoint x="1515" y="1650" as="targetPoint" />
            <Array as="points">
              <mxPoint x="1810" y="1620" />
            </Array>
          </mxGeometry>
        </mxCell>
        <mxCell id="1d3n0oagmLt5IsHWG1j7-10" value="&lt;font style=&quot;font-size: 20px;&quot;&gt;Volume&lt;/font&gt;" style="rounded=0;whiteSpace=wrap;html=1;fillColor=#d5e8d4;strokeColor=#82b366;align=center;verticalAlign=top;" vertex="1" parent="WIyWlLk6GJQsqaUBKTNV-1">
          <mxGeometry x="2481" y="880" width="240" height="800" as="geometry" />
        </mxCell>
      </root>
    </mxGraphModel>
  </diagram>
</mxfile>
